# xmcd CD database file
#
# Track frame offsets:
#	150
#	23120
#	52976
#	70791
#	90125
#	115074
#	134506
#	159503
#	181072
#	196068
#	208482
#
# Disc length: 3096 seconds
#
# Revision: 0
# Processed by: cddbd v1.4PL0 Copyright (c) Steve Scherf et al.
# Submitted via: CDex 1.40Release
#
DISCID=8b0c160b
DTITLE=Stefanie Schlesinger - What love is
DYEAR=2002
DGENRE=Blues
TTITLE0=Why shouldn't you cry
TTITLE1=I wish
TTITLE2=Baiao Kathrin
TTITLE3=Luz do sol
TTITLE4=Cry me a river
TTITLE5=Watch you sleepin'
TTITLE6=Sing me softly of the blues
TTITLE7=Estate
TTITLE8=You don't know what love is
TTITLE9=Laudate
TTITLE10=Send in the clowns
EXTD=YEAR: 2002 ID3G: 0
EXTT0=
EXTT1=
EXTT2=
EXTT3=
EXTT4=
EXTT5=
EXTT6=
EXTT7=
EXTT8=
EXTT9=
EXTT10=
PLAYORDER=
